<svg version="1.1" id="Layer_1" xmlns="http://www.w3.org/2000/svg" xmlns:xlink="http://www.w3.org/1999/xlink" x="0px" y="0px"
	 width="100%" viewBox="0 0 1580 1212" enable-background="new 0 0 1580 1212" xml:space="preserve">
<path fill="#FFFFFF" opacity="0.000000" stroke="none" 
	d="
M1186.965820,1.388657 
	C1316.823120,1.000000 1446.646240,1.017303 1576.469238,0.911572 
	C1580.142578,0.908580 1581.099365,1.643100 1581.098389,5.468649 
	C1580.993286,406.437042 1580.995117,807.405457 1581.078247,1208.373901 
	C1581.078979,1211.890869 1580.656494,1213.111084 1576.626831,1213.110229 
	C1052.834717,1212.994019 529.042664,1212.995361 5.250562,1213.095581 
	C1.647114,1213.096191 0.903006,1212.359497 0.903925,1208.751221 
	C1.006097,807.616150 1.008096,406.481049 0.886797,5.346008 
	C0.885561,1.260484 2.177289,0.923277 5.653334,0.924007 
	C390.123138,1.004842 774.592957,1.000000 1159.531372,1.000000 
	C1159.691895,3.744392 1157.401001,3.066748 1155.804199,3.279058 
	C1132.717529,6.348467 1111.544678,14.493384 1093.007812,28.513983 
	C1062.212402,51.806496 1043.602417,82.562775 1039.199463,121.205406 
	C1034.834961,159.511108 1045.067261,193.655212 1069.613892,223.478012 
	C1071.708862,226.023315 1074.276855,228.259140 1075.602051,231.795135 
	C1075.265381,234.515961 1073.386230,235.797745 1071.861694,237.260910 
	C1060.714111,247.959656 1050.900391,259.947266 1039.649414,270.544159 
	C1038.683350,271.454163 1037.777344,272.444366 1037.207031,273.669342 
	C1036.124634,275.994873 1037.571411,277.429138 1039.084717,278.806183 
	C1040.683594,280.261169 1042.104736,279.676666 1043.440430,278.362183 
	C1047.821411,274.050964 1052.479614,269.964294 1056.417603,265.274078 
	C1064.342529,255.835464 1073.647949,247.760361 1082.277588,238.562164 
	C1084.507324,238.287781 1085.686401,239.538589 1086.958008,240.602234 
	C1107.757690,258.001373 1131.669312,268.120209 1158.629761,270.768158 
	C1198.213135,274.655884 1232.986206,263.534149 1262.765869,236.981506 
	C1287.581665,214.854965 1302.321411,187.174652 1306.254883,154.395813 
	C1311.081055,114.177956 1300.304443,78.247986 1273.284668,47.569237 
	C1251.934326,23.327652 1225.105225,9.200793 1193.410889,3.882346 
	C1191.197021,3.510853 1188.659424,3.785905 1186.965820,1.388657 
z"/>
<path fill="#16CE9A" opacity="1.000000" stroke="none" 
	d="
M1186.531372,1.000000 
	C1195.341431,3.604915 1204.163330,4.037381 1212.476562,6.889486 
	C1265.151733,24.961306 1297.629150,61.123383 1306.800781,116.041229 
	C1314.196899,160.327637 1301.215332,199.534698 1270.046021,232.023361 
	C1247.949463,255.055161 1220.549072,268.354645 1188.807739,271.914703 
	C1149.202515,276.356781 1114.085938,265.494629 1083.694946,239.603500 
	C1083.447144,239.392410 1083.124756,239.268646 1082.541016,238.948303 
	C1078.875977,238.154037 1077.268188,235.237366 1075.039795,232.825714 
	C1071.387817,227.806900 1067.561157,223.242142 1064.006470,218.474670 
	C1007.335388,142.467926 1042.688110,31.940437 1137.955688,5.474010 
	C1144.997559,3.517687 1152.210693,2.206096 1159.765869,1.335352 
	C1168.687622,1.000000 1177.375122,1.000000 1186.531372,1.000000 
z"/>
<path fill="#FCBB65" opacity="1.000000" stroke="none" 
	d="
M509.615479,828.113464 
	C524.015259,844.241943 534.782043,862.120117 540.360840,882.721863 
	C553.043274,929.557373 544.260620,972.096497 513.075317,1009.394653 
	C491.380463,1035.341919 463.137360,1050.813843 429.817719,1055.531250 
	C389.754578,1061.203491 353.573608,1051.013916 322.326233,1024.879395 
	C295.910004,1002.785400 280.101868,974.371704 275.389465,940.478882 
	C269.733704,899.800842 280.315338,863.332031 307.309906,831.982178 
	C329.551483,806.152100 357.802185,790.793030 391.349884,786.373413 
	C432.254517,780.984558 468.763184,791.938660 500.014526,819.318604 
	C500.763336,819.974731 501.572815,820.561646 502.695251,821.284424 
	C505.666412,823.036926 507.585297,825.403809 509.615479,828.113464 
z"/>
<path fill="#F18B8B" opacity="1.000000" stroke="none" 
	d="
M1155.852051,926.304016 
	C1164.901489,921.776184 1173.012451,916.276306 1182.054688,912.348450 
	C1202.128906,903.628174 1223.045776,899.619202 1244.767700,901.214661 
	C1273.761475,903.344360 1299.938110,913.589233 1322.290039,932.194946 
	C1349.609497,954.935608 1366.023071,984.333313 1370.697754,1019.564270 
	C1375.582520,1056.377441 1366.263550,1089.912476 1343.852783,1119.525391 
	C1321.592163,1148.939941 1291.579468,1166.596924 1255.446045,1171.564209 
	C1206.495850,1178.293213 1164.709839,1162.685547 1132.292725,1124.922607 
	C1108.480591,1097.183594 1097.811157,1064.403198 1100.242554,1027.994995 
	C1102.674805,991.573181 1117.730103,960.804443 1144.975830,936.219177 
	C1146.068604,935.233093 1146.958496,934.022400 1148.068848,932.608398 
	C1150.031616,929.580627 1152.949097,928.201294 1155.852051,926.304016 
z"/>
<path fill="#7DC7F1" opacity="1.000000" stroke="none" 
	d="
M1308.597900,527.464905 
	C1308.100708,502.574158 1313.350708,479.408569 1325.477661,458.117249 
	C1347.903442,418.744049 1381.528442,395.099579 1426.603271,389.040771 
	C1463.719360,384.051727 1497.750732,392.631805 1527.488525,415.764374 
	C1556.626343,438.430298 1574.327881,468.078003 1579.091675,504.894897 
	C1582.699585,532.778076 1579.191040,559.758728 1565.947754,584.837830 
	C1544.131226,626.152039 1510.152222,651.458618 1463.763916,657.897644 
	C1417.526855,664.315674 1377.444824,650.074829 1345.224854,616.245483 
	C1325.223511,595.244995 1313.260986,569.835999 1309.850830,540.736206 
	C1309.735718,539.754761 1309.369751,538.802795 1309.052002,537.440674 
	C1306.954468,534.111328 1307.207520,531.010315 1308.597900,527.464905 
z"/>
<path fill="#F18B8B" opacity="1.000000" stroke="none" 
	d="
M274.338928,523.121338 
	C272.283325,552.079895 263.581604,578.255737 245.883698,601.052429 
	C222.007889,631.807007 190.545090,650.038818 151.892059,653.698730 
	C76.176537,660.868042 16.750368,609.574097 4.265816,543.724548 
	C-9.532775,470.944122 37.136948,400.345123 109.823074,385.497559 
	C187.908722,369.546997 256.597290,420.177948 271.168335,491.490326 
	C272.607147,498.532104 272.873962,505.674225 274.041687,513.190918 
	C276.031372,516.599854 275.560547,519.686340 274.338928,523.121338 
z"/>
<path fill="#7DC7F1" opacity="1.000000" stroke="none" 
	d="
M633.341919,292.911438 
	C619.595581,302.408783 605.270325,309.990723 589.509644,314.781738 
	C571.569214,320.235413 553.358215,321.141541 534.774658,319.247467 
	C510.644623,316.788055 488.964325,308.262512 469.673279,293.811737 
	C441.163818,272.455536 423.216370,244.256470 416.973236,209.087952 
	C411.681000,179.275894 415.037811,150.333710 429.061859,123.305710 
	C450.332214,82.312187 484.140381,57.293091 529.680298,50.400711 
	C570.997620,44.147408 608.556091,54.412193 640.308228,82.666069 
	C665.965637,105.496712 681.197388,133.902969 685.117065,168.091904 
	C689.649292,207.623642 679.340027,242.772247 653.462830,273.237854 
	C649.574341,277.815826 645.256836,281.923737 640.939819,286.485596 
	C639.206787,289.720398 636.306458,291.128021 633.341919,292.911438 
z"/>
<path fill="#060606" opacity="1.000000" stroke="none" 
	d="
M274.511688,523.506226 
	C274.047791,520.447815 274.047852,517.452454 274.073883,514.054810 
	C308.566345,514.240234 343.033630,514.781555 377.499054,515.425659 
	C439.276337,516.580322 501.052399,517.801025 562.829163,518.985657 
	C597.131042,519.643494 631.433289,520.284668 665.735352,520.932068 
	C668.157898,520.977783 670.420166,521.693787 670.606018,517.544189 
	C672.597168,473.088379 691.957275,437.807892 727.723022,411.081390 
	C728.583008,410.231781 728.998352,409.433899 728.185608,408.256714 
	C727.567993,407.712463 727.146301,407.447296 726.840637,407.084442 
	C721.718933,401.004791 721.722107,401.002106 728.342896,395.952087 
	C728.921204,395.789124 729.180603,395.708618 729.820129,395.774750 
	C731.854248,397.818695 733.508179,399.716003 735.313110,401.883484 
	C735.240662,403.241272 736.076233,404.371338 735.149536,405.699524 
	C734.742676,406.320923 734.312866,406.515869 734.353271,406.721558 
	C735.258911,405.777435 735.980774,405.046814 737.374268,404.925201 
	C757.386841,392.604736 778.921204,386.310059 802.120544,385.691956 
	C836.343628,384.780090 866.931763,394.776184 893.447571,416.603790 
	C896.097412,418.785248 897.461182,419.017426 899.998108,416.219330 
	C909.172852,406.100220 918.822815,396.413239 928.065491,386.353760 
	C930.467407,383.739655 931.895081,384.682068 933.309265,386.800140 
	C934.625366,388.771362 939.442139,389.475800 935.411804,393.552368 
	C925.224487,403.856537 915.478394,414.600555 905.178894,424.787537 
	C902.754761,427.185303 905.185242,427.122253 905.852600,427.820801 
	C921.293335,443.983826 932.055603,462.802429 938.242554,484.279755 
	C941.436096,495.365387 943.324463,506.658051 943.416077,518.174561 
	C943.449646,522.393555 944.575623,523.664978 949.008545,523.691101 
	C996.338257,523.970398 1043.666382,524.518738 1090.995117,524.975342 
	C1163.321533,525.673157 1235.647827,526.356873 1308.432129,527.064697 
	C1308.964355,530.102844 1309.038696,533.122925 1309.048340,536.593628 
	C1204.900391,536.040100 1100.817383,535.033813 996.734314,534.033997 
	C980.080933,533.874023 963.425232,533.847046 946.775818,533.502380 
	C943.757507,533.439880 943.179565,534.176880 942.844238,537.075867 
	C939.697021,564.287048 929.502625,588.556519 911.614746,609.849548 
	C911.538208,610.371948 911.516296,610.673401 911.070618,611.120850 
	C910.898193,611.285522 910.425903,611.282104 910.652649,611.349365 
	C911.204102,611.401917 911.510742,611.469360 911.987122,611.765503 
	C921.601379,623.940918 930.995361,635.995544 940.493530,647.967529 
	C941.750549,649.552002 941.467041,650.285278 940.088196,651.536255 
	C934.529602,656.579285 934.586304,656.626282 929.875977,650.555298 
	C921.517273,639.782227 913.147461,629.017700 904.614014,618.033081 
	C890.908752,631.807617 875.308350,642.648560 857.183655,649.297485 
	C807.082642,667.676758 761.010559,660.175842 719.285034,626.840027 
	C716.747620,624.812805 715.138000,624.652710 713.131409,627.137817 
	C712.093262,628.423523 710.803040,629.505798 709.299561,630.734741 
	C708.693665,630.626282 708.424500,630.448547 707.933655,630.185303 
	C707.377136,630.137634 707.131836,630.008789 706.926819,629.513733 
	C705.130005,626.900208 702.572205,624.644287 705.678589,621.055176 
	C706.815308,619.577759 707.744385,618.454285 708.619141,617.396606 
	C686.663330,593.624695 673.510437,566.000549 670.948059,533.664795 
	C670.736511,530.994812 669.690857,530.977539 667.653992,530.942444 
	C632.681763,530.339783 597.710632,529.671997 562.739380,529.011292 
	C466.818085,527.199097 370.896881,525.383423 274.511688,523.506226 
z"/>
<path fill="#090909" opacity="1.000000" stroke="none" 
	d="
M700.688110,637.547852 
	C701.428284,640.199280 699.233643,640.859253 698.084106,642.010437 
	C686.562256,653.548279 674.799988,664.849915 663.438660,676.541870 
	C660.070129,680.008423 657.746338,680.895264 654.799927,676.565308 
	C654.070190,675.492798 653.053040,674.615967 652.801453,674.341125 
	C666.075623,660.705811 679.222473,647.264832 692.268372,633.726562 
	C694.065735,631.861389 695.294434,631.659119 696.944275,633.721191 
	C697.976746,635.011658 699.280640,636.084961 700.688110,637.547852 
z"/>
<path fill="#060606" opacity="1.000000" stroke="none" 
	d="
M585.192749,754.192505 
	C577.390015,761.945496 569.725403,769.341003 562.351440,777.015747 
	C560.064270,779.396240 558.538818,779.262329 557.066406,776.732422 
	C555.830261,774.608337 550.705688,773.832031 555.099792,769.615356 
	C567.700195,757.523682 580.048035,745.165894 592.345520,732.764221 
	C594.574463,730.516479 596.168396,729.898926 597.956543,732.805725 
	C599.276001,734.950806 604.135132,736.038818 599.677368,739.955627 
	C594.687988,744.339600 590.167542,749.257324 585.192749,754.192505 
z"/>
<path fill="#090909" opacity="1.000000" stroke="none" 
	d="
M510.086029,828.308472 
	C507.632050,826.251648 505.526245,824.058167 503.228516,821.626343 
	C516.199524,808.407043 529.533020,795.591980 542.420044,782.342529 
	C546.215637,778.440247 547.382446,781.657532 549.674744,783.469299 
	C552.505737,785.706726 552.096069,787.225037 549.622437,789.619568 
	C536.456909,802.364197 523.477844,815.301331 510.086029,828.308472 
z"/>
<path fill="#060606" opacity="1.000000" stroke="none" 
	d="
M982.732117,706.952087 
	C981.285461,708.080688 980.055725,708.949890 978.971191,709.973083 
	C977.547302,711.316284 976.611389,711.122437 975.408630,709.556885 
	C964.273315,695.060974 953.098694,680.594849 941.840515,666.194336 
	C940.416199,664.372498 940.880310,663.513367 942.435120,662.205139 
	C947.878906,657.624939 947.826172,657.572876 952.062378,663.023315 
	C962.159851,676.015259 972.280273,688.989502 982.337952,702.012146 
	C983.384155,703.366699 985.906677,704.747803 982.732117,706.952087 
z"/>
<path fill="#060606" opacity="1.000000" stroke="none" 
	d="
M633.156738,293.267944 
	C635.407593,290.996857 637.810059,289.027435 640.515442,286.926422 
	C652.791748,301.261383 664.730896,315.756683 676.779602,330.160187 
	C678.381165,332.074768 678.495850,333.161865 676.498962,334.873352 
	C671.168091,339.442261 671.272644,339.516266 666.649719,333.911499 
	C655.549133,320.453278 644.423645,307.015564 633.156738,293.267944 
z"/>
<path fill="#060606" opacity="1.000000" stroke="none" 
	d="
M680.347595,350.603088 
	C675.459229,346.024872 680.625916,344.913574 682.547119,342.673370 
	C685.380981,339.368927 686.589050,342.224548 688.072998,344.036835 
	C699.012451,357.396637 709.800842,370.884399 720.973572,384.045959 
	C723.817505,387.396179 721.729614,388.389221 719.604492,389.945343 
	C717.581909,391.426331 716.180176,394.457489 713.089111,390.568970 
	C702.448914,377.183899 691.447754,364.085846 680.347595,350.603088 
z"/>
<path fill="#060606" opacity="1.000000" stroke="none" 
	d="
M1040.585693,793.446411 
	C1036.256592,787.931580 1032.301880,782.569885 1028.013550,777.490051 
	C1024.346313,773.145813 1029.334229,772.822205 1030.823853,771.001526 
	C1032.457031,769.005554 1033.974487,768.315918 1036.137207,771.183899 
	C1046.751099,785.258728 1057.586182,799.168945 1068.506226,813.008606 
	C1070.473755,815.502136 1070.404175,816.957764 1067.633301,818.336060 
	C1065.297974,819.497681 1063.670044,823.710754 1060.297852,819.017212 
	C1054.091553,810.378662 1047.339966,802.131897 1040.585693,793.446411 
z"/>
<path fill="#060606" opacity="1.000000" stroke="none" 
	d="
M1106.232178,861.733948 
	C1107.468140,863.328552 1108.477539,864.645752 1109.497803,865.954590 
	C1113.734375,871.389587 1113.229370,873.159912 1107.024292,876.347961 
	C1105.440552,877.161682 1104.970093,876.413818 1104.260742,875.500977 
	C1092.955933,860.955933 1081.657349,846.405945 1070.350830,831.862244 
	C1069.637207,830.944458 1068.975952,830.338562 1070.100098,828.984619 
	C1074.484619,823.703979 1076.785400,823.680115 1081.021606,829.164124 
	C1089.341553,839.934509 1097.679932,850.690613 1106.232178,861.733948 
z"/>
<path fill="#060606" opacity="1.000000" stroke="none" 
	d="
M1017.996826,747.967285 
	C1020.249207,750.878845 1022.440247,753.400085 1024.338135,756.125427 
	C1025.383423,757.626343 1028.076538,759.032471 1026.858765,760.892334 
	C1025.476074,763.004150 1022.971375,764.450562 1020.789185,765.944946 
	C1019.366333,766.919312 1018.777832,765.309631 1018.134460,764.479675 
	C1007.029663,750.153259 995.986877,735.778564 984.829285,721.493469 
	C983.538574,719.840942 983.410400,719.062683 985.132629,717.616943 
	C990.719055,712.927551 990.661499,712.828247 995.119202,718.535461 
	C1002.695374,728.235352 1010.249634,737.952332 1017.996826,747.967285 
z"/>
<path fill="#060606" opacity="1.000000" stroke="none" 
	d="
M1009.130127,316.132019 
	C1004.263794,321.187714 999.540222,325.895355 995.055237,330.820312 
	C991.411987,334.820831 990.492920,330.037994 988.617676,328.893188 
	C986.941345,327.869751 985.093506,326.648315 987.656860,324.011322 
	C1000.196594,311.110718 1012.584656,298.059937 1024.868652,284.914825 
	C1028.608154,280.913177 1029.413574,285.651306 1031.285278,286.789001 
	C1033.240112,287.977173 1034.843994,289.286469 1032.123901,291.997986 
	C1024.340576,299.756653 1016.932007,307.891144 1009.130127,316.132019 
z"/>
<path fill="#060606" opacity="1.000000" stroke="none" 
	d="
M1156.011963,925.893311 
	C1154.121704,928.656433 1151.575684,930.496826 1148.524902,932.210449 
	C1136.888916,917.699097 1125.620972,903.068115 1114.238525,888.526733 
	C1112.431396,886.218018 1111.586670,884.413147 1114.858154,882.939758 
	C1117.160400,881.902893 1118.614502,877.427124 1122.184570,882.196716 
	C1133.149414,896.845398 1144.587280,911.140015 1156.011963,925.893311 
z"/>
<path fill="#060606" opacity="1.000000" stroke="none" 
	d="
M1074.807373,232.695419 
	C1077.948364,233.697601 1079.521851,236.407669 1082.022217,238.550659 
	C1071.617798,251.367340 1059.575439,262.612671 1048.472046,274.740265 
	C1047.124023,276.212585 1045.514893,277.483765 1044.362915,279.089325 
	C1042.184814,282.124817 1040.609863,281.878052 1037.834106,279.371094 
	C1034.546509,276.401703 1034.378784,274.813141 1037.619995,271.529205 
	C1050.124268,258.860504 1062.256226,245.824188 1074.807373,232.695419 
z"/>
<path fill="#060606" opacity="1.000000" stroke="none" 
	d="
M976.248657,336.170898 
	C980.834717,331.115509 981.654236,337.337738 983.982666,338.459839 
	C986.817017,339.825775 985.013855,341.402618 983.584961,342.897339 
	C971.507996,355.531158 959.415100,368.151123 947.491943,380.929169 
	C945.287231,383.291931 943.746033,383.782715 941.797363,381.032257 
	C940.290466,378.905396 935.891357,378.022369 940.014099,373.874695 
	C952.216309,361.598694 964.026001,348.932373 976.248657,336.170898 
z"/>
<path fill="#060606" opacity="1.000000" stroke="none" 
	d="
M617.802002,721.802673 
	C616.376526,723.228271 615.201416,724.404297 614.025696,725.579712 
	C609.215210,730.389160 607.431396,730.085022 603.534973,724.348999 
	C602.360657,722.620178 603.355896,721.982056 604.259705,721.083008 
	C617.224426,708.186523 630.224060,695.325195 643.142517,682.382690 
	C644.592407,680.930115 645.348816,681.241211 646.739258,682.446960 
	C652.349060,687.311829 652.404419,687.255859 647.347900,692.306519 
	C637.585022,702.057617 627.817566,711.804260 617.802002,721.802673 
z"/>
<path fill="#060606" opacity="1.000000" stroke="none" 
	d="
M705.571899,620.840332 
	C704.907654,623.481567 705.322388,626.083252 706.889282,628.918335 
	C706.375732,628.911499 705.878479,628.502869 705.350769,628.138245 
	C701.954102,625.791504 701.436035,623.415955 705.571899,620.840332 
z"/>
<path fill="#090909" opacity="1.000000" stroke="none" 
	d="
M734.262878,406.974548 
	C734.350586,405.617920 734.775452,404.289154 735.332153,402.557007 
	C736.377686,402.732819 736.913208,403.545319 737.341675,404.804993 
	C736.657898,405.649475 735.628967,406.325928 734.262878,406.974548 
z"/>
<path fill="#090909" opacity="1.000000" stroke="none" 
	d="
M728.094482,408.427307 
	C730.448059,408.342834 730.097534,409.390259 728.340942,410.868591 
	C728.316650,410.303284 729.414551,409.667572 728.094482,408.427307 
z"/>
<path fill="#292625" opacity="1.000000" stroke="none" 
	d="
M912.048828,611.584534 
	C911.752502,612.004211 911.330078,612.096375 910.584229,612.216980 
	C910.260803,612.245361 909.818909,612.187134 909.776550,611.968384 
	C910.119568,611.257141 910.504944,610.764648 911.099487,610.161987 
	C911.513367,610.453491 911.718018,610.855286 912.048828,611.584534 
z"/>
<path fill="#060606" opacity="1.000000" stroke="none" 
	d="
M707.821289,630.392761 
	C708.016235,630.213257 708.330017,630.312317 708.808105,630.600464 
	C708.628296,630.750122 708.284180,630.710693 707.821289,630.392761 
z"/>
<path fill="#090909" opacity="1.000000" stroke="none" 
	d="
M730.091187,395.640198 
	C729.943298,395.929993 729.686340,395.938660 729.045654,395.908447 
	C728.950623,395.308014 729.271301,394.829163 730.091187,395.640198 
z"/>
<path fill="#CFA59C" opacity="1.000000" stroke="none" 
	d="
M896.759277,431.908386 
	C897.256470,433.062012 897.623291,433.921356 898.170288,434.998230 
	C898.915344,435.206543 899.354004,435.436798 899.842712,436.256592 
	C900.459656,438.551331 901.017639,440.472015 901.369263,442.438477 
	C901.602234,443.741699 902.028687,445.173157 900.802979,446.169861 
	C899.489136,447.238251 898.001709,446.915802 896.555054,446.283722 
	C894.503967,445.387573 893.003784,443.089630 890.281738,443.890076 
	C886.970703,444.863739 884.309753,446.833801 882.082275,449.363342 
	C875.638000,456.681549 872.867432,465.099274 875.100098,474.768127 
	C875.820862,477.889587 875.589233,480.586823 873.876709,483.332611 
	C871.669250,486.872040 870.644897,491.000916 868.603577,494.641235 
	C866.175293,498.971466 864.561890,499.161743 861.234070,495.316772 
	C857.027832,490.456879 854.122986,484.775452 852.287231,478.712738 
	C851.054077,474.639893 848.893250,474.164093 845.244446,474.731934 
	C832.898743,476.653290 820.500305,477.780579 808.065369,475.453186 
	C792.568909,472.552765 779.491394,465.688934 770.414673,452.313477 
	C769.795471,451.401031 769.479797,450.101868 767.775024,450.169495 
	C767.193848,450.656830 766.872864,450.960358 766.272583,451.468689 
	C764.391235,452.453369 763.525452,453.798157 762.977417,455.445984 
	C758.740295,468.186554 750.805054,478.174713 740.107605,486.099640 
	C739.158264,486.802979 738.424438,487.697449 737.635010,489.029938 
	C736.899170,489.912048 736.267883,490.322784 735.148560,490.644104 
	C721.209534,490.623932 715.592773,479.764923 714.747498,469.541473 
	C713.533752,454.861694 719.895386,443.586487 730.422729,434.053802 
	C736.275757,428.753784 743.220886,425.230408 750.257019,421.079681 
	C750.789429,420.689728 751.022156,420.560516 751.633362,420.303833 
	C756.845947,418.282654 760.706970,414.767609 765.213074,412.291718 
	C786.368164,400.667816 808.531738,398.503845 831.677917,404.699524 
	C833.444641,405.172424 835.186951,405.707123 837.404175,405.939880 
	C842.827148,407.744629 847.937622,405.251984 853.357361,406.184814 
	C854.484009,405.945465 855.247925,405.880493 856.398499,405.838135 
	C857.292114,405.861359 857.795166,405.935120 858.649292,406.175659 
	C860.250366,407.295471 861.707092,407.398560 863.560669,407.421692 
	C864.124268,407.665649 864.339722,407.785156 864.524658,408.272949 
	C865.124023,408.760956 865.753906,408.880707 866.888184,409.056641 
	C867.392578,409.112854 867.746887,409.083923 867.982178,408.945648 
	C878.205505,412.806549 886.207275,419.684662 894.450562,426.866882 
	C894.699829,427.209930 894.624390,427.369293 894.807739,427.474243 
	C895.066589,427.419800 895.248047,427.805786 895.444763,427.888184 
	C895.435364,429.330200 896.205261,430.425262 896.759277,431.908386 
z"/>
<path fill="#C5DCE0" opacity="1.000000" stroke="none" 
	d="
M890.302917,619.780457 
	C889.896729,622.956055 887.215942,623.700439 885.345398,625.141357 
	C872.890808,634.735474 859.139221,641.822754 843.598022,646.074585 
	C841.542664,646.665466 839.782959,646.706055 837.620728,646.663086 
	C832.786743,641.115173 832.422485,634.235901 830.751404,627.903992 
	C827.532166,615.705505 825.018311,603.343628 823.971313,590.715271 
	C823.633850,586.645569 824.451599,582.773376 825.018677,578.846924 
	C825.370483,576.410828 827.418762,575.851868 829.518372,575.724426 
	C833.340210,575.492371 837.168823,575.520813 840.989380,575.746765 
	C843.121582,575.872864 844.722717,575.400879 844.537170,572.871338 
	C843.031677,552.344971 853.166687,534.942871 859.722717,516.605774 
	C862.232483,509.585876 864.939697,502.591980 868.980652,495.823364 
	C871.099365,494.837799 872.614868,495.532623 873.846375,496.713654 
	C881.480957,504.035339 890.669128,507.605316 901.461792,508.376465 
	C903.249695,510.794159 901.853516,512.729187 901.027710,514.615112 
	C894.116577,530.398193 887.602417,546.348511 880.923950,562.229309 
	C880.111694,564.160828 878.809692,566.044983 879.543945,568.715576 
	C879.777893,569.573242 879.843384,570.078308 879.843262,570.977783 
	C879.620911,575.137024 881.511169,578.407471 882.416748,581.905273 
	C885.622253,594.286621 887.687927,606.894348 890.302917,619.780457 
z"/>
<path fill="#C4DADE" opacity="1.000000" stroke="none" 
	d="
M734.658936,490.194580 
	C735.488159,489.719513 736.024475,489.439911 736.837219,489.035706 
	C737.374573,488.867340 737.635437,488.823578 738.178162,489.060638 
	C738.809692,490.092194 738.841797,490.871948 738.538452,492.039673 
	C732.780945,508.461334 734.451538,523.800110 742.912109,538.473328 
	C745.947754,543.737915 750.005066,548.162781 754.636475,552.003235 
	C757.414673,554.306946 757.989929,556.370422 756.203613,559.702087 
	C751.656250,568.183289 751.796753,568.293579 761.039001,570.432556 
	C763.309265,570.957947 765.444397,571.826416 767.652466,572.502075 
	C764.458862,570.833008 761.025635,569.863098 757.475220,569.401550 
	C753.794800,568.923157 753.199036,567.008423 754.307007,563.809326 
	C756.470337,557.563354 759.172424,556.633606 765.240356,559.052307 
	C772.011597,561.751404 774.271912,566.616028 774.394104,573.482483 
	C774.535645,581.437378 772.860046,589.053589 770.892456,596.615967 
	C767.705200,608.865845 764.303711,621.064087 759.611145,632.853699 
	C758.565369,635.481018 757.742676,638.209229 755.588806,640.675781 
	C742.749207,634.895813 730.759155,628.045227 720.377441,618.037842 
	C723.731812,611.953125 724.484253,605.041870 726.742310,598.667908 
	C729.796448,590.046692 732.876465,581.452148 736.500732,573.055908 
	C737.166687,571.513306 737.693909,569.955933 737.700989,567.879517 
	C737.751709,567.006836 737.799377,566.512024 737.891418,565.654297 
	C738.267822,562.845764 736.622559,561.271179 735.355469,559.569214 
	C721.594788,541.085266 710.819153,520.918152 701.639709,499.850403 
	C700.913086,498.182678 700.148438,496.497284 700.563782,494.252563 
	C706.062134,491.803711 711.394226,489.727814 715.606445,485.491364 
	C717.755981,483.329376 719.754150,485.030640 721.738892,486.387634 
	C725.518311,488.971649 729.220642,492.026245 734.658936,490.194580 
z"/>
<path fill="#F6D1DE" opacity="1.000000" stroke="none" 
	d="
M775.184326,647.251343 
	C770.288147,646.765625 766.283081,644.864868 761.803833,643.310303 
	C760.061401,638.012451 759.825012,633.037720 761.715454,627.947205 
	C764.957886,619.216309 767.508179,610.254578 770.054199,601.296997 
	C770.494507,599.747986 770.580261,597.438110 772.367432,597.234985 
	C774.485107,596.994263 775.181274,599.337830 775.849426,600.952393 
	C778.338623,606.967773 781.912903,612.347778 785.346252,617.818115 
	C781.063538,610.798340 776.913391,603.716064 773.946960,596.004028 
	C772.965515,593.452209 772.442688,590.881470 773.127014,588.197021 
	C774.791260,581.668091 775.092163,575.050537 774.311462,568.395569 
	C773.909912,564.972290 775.535278,564.319397 778.415894,564.808960 
	C782.574585,565.515686 786.193542,566.673218 789.106628,570.347290 
	C794.268799,576.857727 805.162720,576.565247 813.412170,569.940063 
	C816.508911,567.453003 819.692627,565.664185 823.659485,565.287537 
	C826.598389,565.008484 827.901794,566.185547 826.841919,569.041504 
	C821.618408,583.117432 823.788391,597.229614 826.685913,611.291016 
	C828.764832,621.379822 830.864380,631.478577 833.984192,641.323730 
	C834.526123,643.033875 835.288879,644.834045 833.389771,646.716553 
	C819.411987,649.887024 805.628601,648.158264 791.931702,648.548889 
	C786.477783,648.704407 781.049438,648.018555 775.184326,647.251343 
z"/>
<path fill="#FCFCFC" opacity="1.000000" stroke="none" 
	d="
M738.822754,564.782959 
	C738.972778,565.551086 738.973999,565.983459 738.978271,566.740295 
	C732.551697,580.705688 727.473572,594.849365 723.247009,609.311340 
	C722.459534,612.005676 721.873047,614.766541 720.447571,617.647034 
	C698.156982,597.735168 684.368469,572.874634 679.506042,543.369995 
	C676.135498,522.917664 677.522705,502.618774 684.015381,482.414490 
	C688.237793,487.786591 693.351501,492.535065 699.357239,496.466522 
	C700.987061,497.533356 701.341858,500.220001 702.235535,502.189362 
	C712.224854,524.202271 723.449341,545.496765 738.822754,564.782959 
z"/>
<path fill="#212020" opacity="1.000000" stroke="none" 
	d="
M834.245850,646.343140 
	C829.687561,630.643066 825.666138,615.214905 823.456726,599.382324 
	C821.896301,588.200317 821.985229,577.144897 827.023804,565.933289 
	C822.324280,566.677673 818.214722,566.594116 814.652039,570.173828 
	C809.117188,575.735107 802.151428,577.517700 794.429504,575.497009 
	C792.491516,574.989929 790.124084,574.360413 789.347778,572.588074 
	C786.578552,566.266235 780.724915,566.415833 774.839294,565.223572 
	C777.238892,573.672729 775.744629,581.813782 773.967712,589.923340 
	C773.458435,592.247375 774.450867,594.178955 775.258667,596.148193 
	C778.422485,603.861267 782.376770,611.156372 787.081604,618.042480 
	C787.705383,618.955505 788.978882,620.048218 787.625916,620.989746 
	C786.335815,621.887512 785.670471,620.411316 785.007019,619.496765 
	C780.026550,612.631592 776.286621,605.065918 772.451721,596.522949 
	C769.149353,609.176147 765.483887,620.784119 761.558777,632.320007 
	C760.546204,635.296021 761.359253,638.893250 761.412476,642.641235 
	C759.548401,642.471436 757.605408,641.865540 755.473877,641.086365 
	C762.569092,622.645020 768.445251,603.952393 772.390259,584.665283 
	C773.096619,581.212097 773.467224,577.750793 773.428528,574.248108 
	C773.323181,564.720459 769.768677,560.322510 760.618225,557.878113 
	C758.903809,557.420105 758.535156,558.458496 758.029541,559.386475 
	C756.615173,561.982361 755.323364,564.644897 753.798218,567.644897 
	C759.587830,568.496826 764.756958,569.583130 769.590698,571.839722 
	C770.476807,572.253418 771.739014,572.637756 771.410461,573.791931 
	C770.909424,575.551819 769.561951,574.698547 768.565918,574.224915 
	C763.834412,571.974915 758.771729,570.976501 753.636902,570.372986 
	C751.108398,570.075684 750.391724,569.130798 751.506226,566.817017 
	C752.804565,564.121704 753.730530,561.181274 755.403320,558.749878 
	C757.174011,556.176086 756.501953,555.028137 754.300537,553.187378 
	C735.328796,537.323547 730.873413,516.946960 736.240173,493.653900 
	C736.376587,493.061829 736.942078,492.568634 737.663208,491.892700 
	C741.046448,492.825684 739.927673,495.240967 739.590698,497.178375 
	C738.356567,504.272705 737.675110,511.389221 738.820862,518.533569 
	C742.159485,539.350891 754.981201,552.648254 773.881653,559.835754 
	C794.878418,567.820557 816.068726,565.582092 836.870911,557.992859 
	C840.938477,556.508911 843.200317,553.769043 844.545654,549.562073 
	C848.956055,535.769958 853.590637,522.029541 859.654114,508.858124 
	C861.759949,504.283722 862.008240,500.583313 858.399658,496.600616 
	C854.571533,492.375549 852.205566,487.110687 850.204163,481.819183 
	C848.949524,478.502350 847.113953,477.714478 843.758545,478.148224 
	C830.679993,479.838837 817.541260,480.454254 804.510986,477.916107 
	C790.967773,475.278015 779.741150,468.439331 770.751282,457.986603 
	C768.924316,455.862366 766.935181,453.744873 766.920166,450.301697 
	C767.142090,448.901642 765.518127,447.751984 767.128662,446.878052 
	C768.032898,446.387360 768.627686,447.184479 769.075684,447.921356 
	C785.235168,474.499420 810.485535,477.596558 838.077332,474.622925 
	C842.362122,474.161102 847.281433,472.098236 850.734558,473.555206 
	C854.055481,474.956421 853.844177,480.809875 855.750732,484.496735 
	C858.280457,489.388794 860.922974,494.130951 865.369629,498.191895 
	C869.326538,492.007141 870.862732,484.848694 875.218811,479.193939 
	C875.549805,478.764221 874.637817,477.412964 874.360535,476.473297 
	C870.880005,464.678619 875.984863,450.840210 886.176086,444.487885 
	C889.160767,442.627472 892.342651,441.417084 895.346252,444.171143 
	C896.857483,445.556732 898.595886,446.668701 900.155823,445.693115 
	C901.821472,444.651398 900.177307,442.672974 900.007202,441.120056 
	C899.883057,439.986267 899.347900,438.897491 898.997314,437.395386 
	C899.274902,436.581085 899.590271,436.191833 900.318359,435.807831 
	C903.840149,437.952789 903.531555,441.510864 904.162415,444.653412 
	C904.523682,446.452881 904.503967,448.498901 906.473206,449.262695 
	C911.418335,451.180725 914.208496,455.825562 918.803833,458.745422 
	C919.080139,458.985870 919.009888,458.988647 919.019348,458.954803 
	C919.597656,459.762482 919.866211,460.739655 920.418945,462.006317 
	C925.080688,468.929779 925.177673,475.774506 921.524658,483.086548 
	C920.741516,483.571320 920.232422,483.680939 919.310059,483.609833 
	C910.627686,482.679840 903.107727,479.460388 895.770569,475.774902 
	C893.233887,474.500702 890.564758,472.935577 894.053833,469.570709 
	C899.562927,470.663635 902.040100,469.279114 905.266235,463.531219 
	C906.257202,461.765778 906.831848,458.608063 909.528259,459.901794 
	C912.255676,461.210449 910.639526,463.934326 909.780029,466.027374 
	C908.952332,468.043091 907.454895,469.618652 906.083313,471.274231 
	C905.340759,472.170593 904.499695,473.277283 905.523315,474.353485 
	C906.793091,475.688477 907.938965,474.596375 908.933289,473.737793 
	C910.717651,472.196960 912.009766,470.315369 912.761963,468.052551 
	C913.309631,466.404816 914.072571,464.925415 916.569092,465.674011 
	C919.054932,469.217346 916.548096,471.759918 915.359924,474.527740 
	C914.996338,475.374664 913.999451,476.313019 915.215149,477.068451 
	C916.180847,477.668549 917.193420,476.973267 917.870972,476.263336 
	C921.206055,472.768982 918.877319,469.541779 917.056030,466.050110 
	C913.433960,458.750305 906.821411,455.523987 900.470642,451.988068 
	C900.164246,451.817444 899.856323,451.802246 899.541565,451.935547 
	C899.388062,452.000519 893.354675,461.221130 893.370544,461.402191 
	C893.445374,462.253601 893.620300,463.178314 894.493469,463.451385 
	C895.510498,463.769409 895.900330,462.779144 896.340515,462.115082 
	C897.268250,460.715729 897.727417,459.095490 898.398499,457.574158 
	C898.979858,456.256287 899.364929,454.304291 901.299194,454.759216 
	C903.390320,455.250977 903.263672,457.333618 903.006714,458.919342 
	C902.250916,463.583557 900.035767,467.341003 895.266235,469.504883 
	C888.929382,470.727631 889.329712,465.024872 887.202576,462.208344 
	C885.289368,459.675049 887.613098,458.058228 889.224548,456.358124 
	C891.515808,453.940765 895.838867,451.156982 892.298279,447.871460 
	C889.305481,445.094208 886.200684,449.170746 884.153564,451.404724 
	C878.995972,457.033020 876.543518,463.850037 877.587585,471.572327 
	C877.946960,474.230255 878.249084,476.834381 877.867188,479.851990 
	C877.121887,485.027893 873.977051,488.845703 872.230225,493.623962 
	C871.631775,494.512329 871.102112,494.975372 870.259216,495.616821 
	C860.450378,515.481079 852.914917,535.916809 846.681702,556.787964 
	C845.166565,561.861267 846.011963,567.696594 846.114197,573.175110 
	C846.177917,576.590271 845.502808,578.089539 841.639526,577.200867 
	C837.759399,576.308228 833.743958,576.327759 829.715393,576.626587 
	C826.787720,576.843689 825.839722,578.032288 825.518005,580.851624 
	C824.130188,593.011353 826.786316,604.743286 829.209961,616.457092 
	C831.229492,626.217896 833.501831,635.952393 837.153320,645.693970 
	C836.755615,648.086426 835.624512,647.576599 834.245850,646.343140 
z"/>
<path fill="#F9F9F8" opacity="1.000000" stroke="none" 
	d="
M920.716248,483.253021 
	C921.466858,480.507324 921.784363,478.036926 922.824158,475.594208 
	C924.878357,470.768555 921.265808,466.975372 919.734497,462.447327 
	C919.975830,461.924286 920.171021,461.787079 920.677124,461.827026 
	C928.528870,474.700104 932.715088,488.627167 934.726074,503.067200 
	C939.608154,538.123474 931.875061,570.244141 910.868896,598.936951 
	C906.248535,605.248047 901.171387,611.201416 895.406677,616.513245 
	C894.306396,617.527161 893.546326,619.487488 891.218140,618.291260 
	C887.432678,611.083496 887.506836,603.454834 886.148987,596.170410 
	C885.743225,593.994019 887.729675,593.034302 889.701965,592.770569 
	C901.205383,591.232788 907.700562,584.295776 910.587952,573.461609 
	C911.106812,571.514954 912.292786,570.441833 914.207031,569.739075 
	C925.910278,565.443054 929.734802,556.385437 924.786804,544.675537 
	C922.511780,539.291443 919.487366,534.296936 916.339172,529.380554 
	C912.272705,523.030273 908.391541,516.602295 908.545105,508.663879 
	C908.576111,507.059662 907.504517,505.886292 906.855835,504.159912 
	C906.177612,500.542786 910.485962,498.729095 909.144531,494.970398 
	C908.773071,494.269653 908.624146,493.840546 908.534729,493.044250 
	C908.708374,492.247528 908.968872,491.868530 909.634766,491.388672 
	C915.260010,491.114838 917.653625,487.010010 920.716248,483.253021 
z"/>
<path fill="#F7F7F7" opacity="1.000000" stroke="none" 
	d="
M751.989014,420.827881 
	C751.414368,420.960785 751.229370,420.984894 750.839050,421.199097 
	C736.667969,427.099304 725.399719,435.947449 718.148621,449.424347 
	C716.827698,451.879395 715.247681,453.191772 712.734497,451.014832 
	C709.778809,448.454590 705.940125,448.602112 702.292969,447.167542 
	C720.712769,421.214966 745.423462,404.335571 776.202454,396.737305 
	C803.563416,389.982819 830.427795,392.051453 856.534424,402.868347 
	C857.826721,403.403778 859.530945,403.371033 859.896057,405.570557 
	C859.693481,406.104156 859.537964,406.271027 859.039124,406.438965 
	C858.020569,406.273895 857.353394,406.067902 856.293152,406.012451 
	C855.190552,405.995483 854.448364,405.997894 853.325684,406.167480 
	C848.321472,405.682770 843.738342,406.639465 838.724609,406.557922 
	C829.531555,404.102020 820.820129,401.580017 811.553528,401.281128 
	C790.710022,400.608795 771.897766,406.105316 755.206543,418.685608 
	C754.280457,419.383606 753.409607,420.164642 751.989014,420.827881 
z"/>
<path fill="#292625" opacity="1.000000" stroke="none" 
	d="
M906.701050,503.033325 
	C909.167236,505.732239 909.699524,509.010315 910.083679,512.470703 
	C910.822754,519.128357 914.628418,524.509949 918.100098,529.987610 
	C921.928711,536.028381 925.953125,541.960083 927.369995,549.181763 
	C929.589355,560.494263 925.052002,568.085388 913.971252,570.880981 
	C912.177856,571.333435 912.158691,572.113098 911.812683,573.441223 
	C908.705688,585.368164 902.114319,593.407837 888.735657,593.533386 
	C885.540894,593.563416 886.888062,595.729248 887.123169,597.003906 
	C888.359314,603.706360 889.778320,610.375061 891.086365,617.458496 
	C891.094238,618.054993 891.149536,618.248474 891.103760,618.726257 
	C891.043640,619.258728 891.084717,619.506897 890.774536,619.892456 
	C890.423157,620.029907 890.378174,620.157898 890.420654,620.146851 
	C888.172974,619.879822 888.894409,617.876465 888.619507,616.646362 
	C885.346436,602.000000 883.541809,587.009155 878.257324,572.833862 
	C878.106445,572.429138 878.368896,571.870300 878.743042,571.190063 
	C881.742065,569.832153 882.097595,572.205933 882.772766,573.664551 
	C884.452576,577.293640 885.230042,581.237305 886.372681,585.053589 
	C887.716003,589.540405 889.076782,590.390686 893.643494,589.101379 
	C901.739746,586.815674 906.099304,580.950928 907.443359,573.065552 
	C908.132690,569.021301 909.167419,566.815308 913.700378,566.506714 
	C918.985168,566.147034 922.737732,562.042603 923.469360,556.768677 
	C924.050598,552.578430 923.617371,548.494385 921.791016,544.598633 
	C919.671692,540.077942 917.309753,535.708740 914.496521,531.570740 
	C909.579041,524.337341 905.929077,516.588074 905.216187,507.300598 
	C904.980469,505.496490 905.156067,504.188751 906.701050,503.033325 
z"/>
<path fill="#212020" opacity="1.000000" stroke="none" 
	d="
M701.896362,447.164673 
	C709.709106,447.497650 709.709106,447.497650 715.516418,451.848877 
	C722.957764,437.096741 733.908813,426.274353 750.285400,421.273743 
	C750.139587,424.129730 747.510498,424.085327 745.720825,425.005341 
	C733.374390,431.351868 723.319153,439.941132 717.991516,453.146729 
	C715.165527,460.151367 714.808411,467.409546 716.688110,474.703278 
	C719.037842,483.820557 724.816101,488.733337 734.578247,489.935974 
	C735.331543,492.766510 733.375854,492.412933 731.764343,492.278320 
	C727.459106,491.918640 723.763672,489.973389 720.912292,486.911438 
	C718.590881,484.418671 717.254089,484.892975 715.144104,487.108276 
	C711.675720,490.749817 707.315491,493.097931 702.030151,494.299316 
	C701.424377,494.366699 701.176331,494.431641 700.552124,494.422180 
	C698.541016,491.804779 700.773376,491.196930 702.269165,490.400787 
	C705.493530,488.684723 708.934387,487.375031 711.712585,484.871735 
	C713.788696,483.001068 714.673401,480.880981 713.528198,478.199432 
	C711.079346,472.465790 711.522949,466.435059 711.851318,460.469116 
	C712.275940,452.754120 710.994568,451.279175 702.962830,451.577301 
	C701.770630,451.465424 701.116089,451.079620 700.306824,450.201935 
	C699.960083,448.650635 700.953979,448.117340 701.896362,447.164673 
z"/>
<path fill="#292625" opacity="1.000000" stroke="none" 
	d="
M699.953735,493.818573 
	C700.454956,494.069672 700.701904,494.092926 701.310669,494.208984 
	C700.157349,495.819855 701.554688,497.132202 702.098816,498.364624 
	C711.788269,520.310303 722.914490,541.446472 737.389160,560.688171 
	C738.241211,561.820923 739.676575,562.775513 739.080139,564.843140 
	C732.860046,561.004211 729.881226,554.354309 725.994995,548.546326 
	C715.934753,533.511475 707.753845,517.414978 700.602966,500.806793 
	C699.305786,497.794128 697.785828,495.190979 694.536255,493.947021 
	C689.105713,491.868164 686.307617,487.531219 684.356812,482.123260 
	C683.830811,480.959198 684.205994,480.250092 685.656738,479.997559 
	C686.305908,480.275055 686.660400,480.490784 687.345154,480.782959 
	C687.798096,481.068054 687.961182,481.212158 688.327698,481.616913 
	C688.640137,482.071991 688.749023,482.266388 688.996826,482.766968 
	C690.404602,486.681091 692.781494,489.178101 696.443726,490.408997 
	C698.029785,490.942047 699.500977,491.623474 699.953735,493.818573 
z"/>
<path fill="#F2F2F2" opacity="1.000000" stroke="none" 
	d="
M833.624756,645.991821 
	C834.931335,646.745117 835.728577,647.737244 837.162842,646.362671 
	C839.000977,646.076965 840.687134,646.102600 842.796265,646.089722 
	C832.383972,649.906860 821.125061,651.450806 809.716614,651.492249 
	C798.131287,651.534363 786.587830,650.595276 775.025757,647.335815 
	C794.212769,646.519165 813.720032,647.838989 833.624756,645.991821 
z"/>
<path fill="#212020" opacity="1.000000" stroke="none" 
	d="
M687.354614,481.311493 
	C686.841370,480.858307 686.549927,480.655945 686.129517,480.217346 
	C686.563904,479.821899 687.127380,479.662659 687.846436,479.246338 
	C694.107788,476.858887 688.937134,474.067902 688.223389,471.285400 
	C688.162842,470.722137 688.316650,470.424042 688.725281,470.063873 
	C691.747864,468.247284 693.190796,470.244873 694.683289,472.036835 
	C695.611145,473.150879 696.402039,474.858124 698.181641,473.790863 
	C699.964478,472.721619 699.403687,470.988068 698.808167,469.377258 
	C697.876160,466.856598 695.527100,465.259949 694.513550,462.430817 
	C697.772278,457.601013 699.424683,462.651611 701.894775,463.377014 
	C702.516296,460.234985 698.413574,458.351746 699.942810,454.818970 
	C700.659241,454.352386 701.143616,454.256104 702.028015,454.317383 
	C706.670898,457.227539 709.070129,460.714813 706.968933,466.112946 
	C705.984497,468.641846 706.411560,471.340057 706.808899,473.990204 
	C707.196716,476.577576 706.882690,478.530487 703.388000,478.539337 
	C700.355286,478.547058 697.674622,480.139984 695.127869,481.701416 
	C693.027283,482.989227 690.955933,483.732758 688.301941,482.206848 
	C688.003540,481.950073 687.995789,482.015564 688.028442,482.020081 
	C687.899597,481.870514 687.738037,481.716431 687.354614,481.311493 
z"/>
<path fill="#292625" opacity="1.000000" stroke="none" 
	d="
M720.213745,617.924805 
	C721.814758,607.067261 725.882202,596.896667 729.645264,586.664429 
	C732.093689,580.006714 734.137634,573.116638 738.648804,567.136780 
	C739.721252,568.611450 739.024353,569.943604 738.419312,571.334351 
	C732.171936,585.695618 726.922241,600.409973 722.822632,615.530823 
	C722.533875,616.595947 722.484680,617.937500 720.476440,617.935852 
	C720.057617,617.824097 720.205627,617.884888 720.213745,617.924805 
z"/>
<path fill="#F2F2F2" opacity="1.000000" stroke="none" 
	d="
M919.028931,458.628113 
	C916.105408,458.068848 913.121643,457.176453 911.478638,454.149933 
	C911.244873,453.719299 910.915649,453.109283 910.532898,453.024811 
	C902.222168,451.189941 903.354553,443.744659 901.557861,438.039062 
	C901.360840,437.413361 901.009766,436.836182 900.389893,436.068298 
	C899.897705,435.745514 899.745728,435.590973 899.851562,435.238342 
	C901.826599,434.666382 902.867737,435.611450 903.900635,436.813690 
	C909.625793,443.477631 914.997498,450.383057 919.028931,458.628113 
z"/>
<path fill="#F5DFDF" opacity="1.000000" stroke="none" 
	d="
M694.086426,461.820251 
	C697.397522,464.338470 699.945618,467.033325 700.926819,470.951447 
	C701.498962,473.236450 700.794434,474.784302 698.695374,475.777527 
	C696.568665,476.783783 695.555664,475.805939 694.407776,473.983582 
	C693.308960,472.239288 692.635742,469.656036 689.363586,469.870483 
	C690.088318,467.445068 691.196533,464.888367 692.594238,462.140961 
	C693.142151,461.616638 693.471924,461.490509 694.086426,461.820251 
z"/>
<path fill="#EAD6D6" opacity="1.000000" stroke="none" 
	d="
M694.433777,461.629578 
	C693.975220,462.030121 693.663025,462.013916 693.117554,461.968079 
	C694.116516,458.366180 696.355774,455.348267 698.695923,452.096039 
	C700.052551,452.457306 700.617004,453.200104 700.222412,454.690369 
	C699.807190,456.456329 700.446167,457.784332 701.433594,458.556305 
	C704.385864,460.864410 704.032043,463.413025 702.431396,466.215637 
	C699.485291,465.069397 699.263672,459.635406 694.433777,461.629578 
z"/>
<path fill="#EAD6D6" opacity="1.000000" stroke="none" 
	d="
M687.976440,471.383850 
	C690.275574,471.660431 691.596680,473.522064 692.242371,475.421906 
	C693.235962,478.345276 692.603271,480.522919 688.345520,478.996429 
	C683.687195,476.609863 687.751160,474.163116 687.976440,471.383850 
z"/>
<path fill="#060606" opacity="1.000000" stroke="none" 
	d="
M700.323914,455.009705 
	C699.708740,454.206055 699.415039,453.412506 699.072754,452.304291 
	C699.342041,451.503540 699.659790,451.017456 700.008179,450.225037 
	C700.623718,450.175934 701.208557,450.433167 701.966675,450.968140 
	C702.968323,452.212158 702.984131,453.267517 702.207642,454.696289 
	C701.502991,455.015320 701.074158,455.017548 700.323914,455.009705 
z"/>
<path fill="#060606" opacity="1.000000" stroke="none" 
	d="
M858.728149,406.455688 
	C858.999512,406.144897 859.408386,405.976196 859.628662,405.956726 
	C860.994263,406.950867 862.427734,405.936493 863.812988,406.698059 
	C864.123657,407.185364 864.261597,407.450684 864.427002,408.163727 
	C862.833740,408.340179 861.212952,408.068939 859.211426,407.649902 
	C858.706055,407.256866 858.581421,407.011658 858.728149,406.455688 
z"/>
<path fill="#212020" opacity="1.000000" stroke="none" 
	d="
M896.934082,431.860535 
	C895.813049,431.252808 894.761963,430.294678 895.690308,428.322845 
	C896.961304,428.823761 897.219604,430.076996 896.934082,431.860535 
z"/>
<path fill="#F2F2F2" opacity="1.000000" stroke="none" 
	d="
M920.954590,461.684814 
	C920.786865,462.014343 920.585693,462.024475 920.082520,462.048065 
	C919.322937,461.170593 918.865234,460.279724 918.718140,459.154907 
	C920.119141,459.380035 920.426331,460.445343 920.954590,461.684814 
z"/>
<path fill="#060606" opacity="1.000000" stroke="none" 
	d="
M899.668396,435.071899 
	C900.109375,435.040253 900.017639,435.465851 900.033691,435.682953 
	C899.856934,436.190063 899.664185,436.480042 899.235107,436.886078 
	C898.804138,436.620270 898.609558,436.238434 898.382690,435.536133 
	C898.642700,435.178345 898.935059,435.140930 899.668396,435.071899 
z"/>
<path fill="#F9F9F8" opacity="1.000000" stroke="none" 
	d="
M890.772705,619.961121 
	C890.629089,619.922180 890.835022,619.814514 891.021790,619.358704 
	C891.245972,619.039856 891.489380,619.069092 891.732788,619.098328 
	C891.529236,619.363037 891.325684,619.627686 890.772705,619.961121 
z"/>
<path fill="#292625" opacity="1.000000" stroke="none" 
	d="
M907.217041,616.021973 
	C907.008545,616.429382 906.758057,616.608459 906.507690,616.787537 
	C906.444641,616.528137 906.381592,616.268799 906.516479,615.872864 
	C906.714478,615.736328 907.175110,615.793701 907.217041,616.021973 
z"/>
<path fill="#292625" opacity="1.000000" stroke="none" 
	d="
M906.852112,615.863220 
	C906.834778,615.420349 907.026001,615.155579 907.766174,615.081543 
	C908.105164,615.517700 907.906616,615.766968 907.453796,616.109619 
	C907.259033,616.250305 906.989746,615.990112 906.852112,615.863220 
z"/>
<path fill="#292625" opacity="1.000000" stroke="none" 
	d="
M907.868530,614.866943 
	C907.958923,614.553711 908.174622,614.358337 908.390259,614.162964 
	C908.448730,614.409180 908.507141,614.655396 908.404907,615.061340 
	C908.244202,615.221008 907.993835,614.984863 907.868530,614.866943 
z"/>
<path fill="#CFA59C" opacity="1.000000" stroke="none" 
	d="
M867.018677,409.015625 
	C866.846863,408.130157 867.338928,408.073486 868.117065,408.527161 
	C868.217407,408.807373 868.124573,408.887543 868.078491,408.927948 
	C867.851562,409.075470 867.670715,409.182587 867.222656,409.122284 
	C866.955505,408.954865 866.997192,408.995789 867.018677,409.015625 
z"/>
<path fill="#292625" opacity="1.000000" stroke="none" 
	d="
M910.128052,612.122620 
	C910.029724,612.459045 909.798645,612.672729 909.567566,612.886414 
	C909.501831,612.617615 909.436157,612.348877 909.552307,611.914795 
	C909.734192,611.749573 909.995239,611.999878 910.128052,612.122620 
z"/>
<path fill="#212020" opacity="1.000000" stroke="none" 
	d="
M895.053589,427.334930 
	C895.066589,427.419800 894.733154,427.243866 894.754150,427.147217 
	C894.775208,427.050568 895.040588,427.250061 895.053589,427.334930 
z"/>
<path fill="#212020" opacity="1.000000" stroke="none" 
	d="
M864.475830,408.590149 
	C864.329224,408.342926 864.203857,408.074371 864.032104,407.362915 
	C864.229980,407.276306 864.474304,407.632629 864.606384,408.315063 
	C864.494202,408.641205 864.497131,408.568817 864.475830,408.590149 
z"/>
<path fill="#090909" opacity="1.000000" stroke="none" 
	d="
M734.022827,407.037781 
	C733.919678,407.041382 733.845764,407.884979 733.794373,407.022034 
	C733.925659,406.946655 733.993713,407.004089 734.022827,407.037781 
z"/>
<path fill="#F9E2E2" opacity="1.000000" stroke="none" 
	d="
M766.749756,450.081970 
	C777.798401,467.867950 794.366699,476.052826 814.523071,477.846191 
	C824.663757,478.748505 834.841248,478.302734 844.859253,476.290741 
	C848.119995,475.635834 849.880188,476.049835 851.032227,479.651489 
	C853.379333,486.989563 857.005737,493.753052 862.569458,499.250732 
	C864.147034,500.809601 864.127075,502.109985 863.275635,504.073273 
	C856.325439,520.099243 850.199951,536.440979 844.925659,553.097778 
	C844.317566,555.018127 843.652222,556.805847 841.510071,557.681458 
	C816.252502,568.006287 790.724121,570.698914 765.760010,557.720703 
	C742.148804,545.445862 732.900940,523.470642 738.245422,496.152130 
	C738.495667,494.873077 739.259888,493.642303 738.318237,492.016602 
	C738.020264,491.127625 738.021729,490.499176 738.015991,489.556396 
	C741.830872,484.452148 747.346436,481.534790 751.319458,476.798889 
	C757.053955,469.963348 761.517334,462.586823 764.013916,454.027283 
	C764.247803,453.225586 764.581055,452.476501 765.402588,451.595032 
	C765.917053,450.970428 766.181335,450.602417 766.749756,450.081970 
z"/>
<path fill="#292625" opacity="1.000000" stroke="none" 
	d="
M751.867798,421.114746 
	C755.043030,415.729218 760.529663,413.118164 765.744812,410.418884 
	C787.162842,399.333160 809.521606,396.845520 832.794800,403.761627 
	C834.637268,404.309113 836.191467,404.946075 837.639648,406.502014 
	C834.944641,407.363678 832.187622,405.881378 829.268738,405.182495 
	C803.242371,398.951508 779.162842,403.261932 757.126465,418.624725 
	C755.605286,419.685242 754.540771,421.815125 751.867798,421.114746 
z"/>
<path fill="#1B1A1A" opacity="1.000000" stroke="none" 
	d="
M765.312988,451.190735 
	C761.900208,467.645386 752.462097,479.875977 738.336548,489.111481 
	C738.008667,489.242035 737.587402,489.006439 737.350586,488.958771 
	C736.522400,486.943146 738.072998,486.355438 739.271118,485.498779 
	C750.444519,477.509949 758.335449,467.123535 762.452393,453.930511 
	C762.819153,452.755127 762.533569,450.583374 765.312988,451.190735 
z"/>
<path fill="#212020" opacity="1.000000" stroke="none" 
	d="
M838.183105,406.817322 
	C838.073608,406.396393 838.056152,406.443451 838.038147,406.460754 
	C842.825684,403.762360 848.044189,405.033661 853.570679,405.042175 
	C854.362061,405.531158 854.501099,405.957367 854.220703,406.728577 
	C848.763367,406.945282 843.542114,408.057617 838.183105,406.817322 
z"/>
<path fill="#060606" opacity="1.000000" stroke="none" 
	d="
M854.369873,407.101837 
	C854.006958,406.599731 854.012085,406.191284 854.020020,405.476532 
	C854.773926,405.153778 855.525146,405.137390 856.636108,405.232666 
	C857.335999,405.712433 857.481812,406.149902 857.231201,406.926331 
	C856.247009,407.202301 855.492493,407.198914 854.369873,407.101837 
z"/>
<path fill="#060606" opacity="1.000000" stroke="none" 
	d="
M857.280884,407.364014 
	C857.000366,406.791992 856.999146,406.378326 856.996887,405.654480 
	C857.484375,405.551422 857.972900,405.758453 858.730469,406.055176 
	C858.976074,406.371552 858.952637,406.598236 858.879883,407.163513 
	C858.407227,407.508850 857.983704,407.515594 857.280884,407.364014 
z"/>
<path fill="#212020" opacity="1.000000" stroke="none" 
	d="
M867.024109,409.174500 
	C867.134216,409.009125 867.312988,409.063416 867.762085,409.043030 
	C867.865967,409.434326 867.686157,409.870636 867.024109,409.174500 
z"/>
<path fill="#CDA39B" opacity="1.000000" stroke="none" 
	d="
M905.614319,507.056396 
	C908.261536,508.748077 906.944275,511.488586 907.549683,513.780823 
	C909.546753,521.342651 913.729736,527.699585 917.845398,534.150513 
	C921.520325,539.910400 925.034851,545.758789 925.276611,552.918335 
	C925.598022,562.440552 921.303589,567.529358 911.785400,568.193604 
	C908.809387,568.401306 909.354858,569.984375 909.289978,571.847595 
	C908.926941,582.269043 899.609619,591.169006 889.460815,591.124329 
	C887.038208,591.113647 886.138794,590.347473 885.465332,587.997498 
	C883.841980,582.333557 883.519470,576.181458 879.362488,571.138672 
	C879.015259,570.624023 878.983154,570.251282 878.957520,569.597778 
	C880.589417,561.796814 884.727600,555.250000 887.198914,548.051880 
	C889.385254,541.683655 892.785950,536.134705 897.969727,531.610474 
	C902.189697,527.927429 903.702881,522.892944 903.767273,517.289246 
	C903.806152,513.909912 902.699463,510.266296 905.614319,507.056396 
z"/>
<path fill="#1B1A1A" opacity="1.000000" stroke="none" 
	d="
M905.958130,506.526611 
	C904.954773,508.851532 904.665100,510.836823 904.969299,513.112976 
	C906.195801,522.288940 902.840088,529.771362 895.828308,535.591187 
	C893.573486,537.462646 892.052673,539.581177 890.931641,542.273560 
	C887.229248,551.165039 883.314880,559.968201 879.223022,569.061157 
	C876.036865,568.032593 878.044373,566.316406 878.655212,564.849670 
	C886.376892,546.308838 894.141663,527.785889 901.991211,508.878235 
	C901.993774,508.286407 901.900574,508.074738 901.846313,507.518433 
	C903.992249,502.653595 905.508972,497.787537 909.720703,494.167847 
	C912.178711,497.721008 909.664429,499.957947 907.250977,502.574585 
	C906.702820,503.969116 906.327515,505.070129 905.958130,506.526611 
z"/>
<path fill="#292625" opacity="1.000000" stroke="none" 
	d="
M902.140991,508.191223 
	C901.988220,508.559723 902.042908,508.539520 902.064941,508.518799 
	C892.245483,509.902771 884.180176,505.738953 876.445984,500.412750 
	C874.435486,499.028168 873.203979,496.672150 870.352295,495.888733 
	C870.149292,495.336121 870.303467,494.825897 870.687866,494.169922 
	C873.280518,492.363770 875.027710,493.872650 876.650208,495.280396 
	C882.714355,500.541901 889.661987,503.762085 897.642700,504.795288 
	C899.606140,505.049500 901.665222,505.403168 902.140991,508.191223 
z"/>
<path fill="#212020" opacity="1.000000" stroke="none" 
	d="
M710.750366,507.934204 
	C709.537720,508.185272 708.555237,508.366791 708.132690,507.539581 
	C707.678650,506.650757 708.303711,506.006073 709.216003,505.725189 
	C716.161926,503.586914 722.186890,499.920990 727.372375,494.839081 
	C727.948242,494.274689 728.735718,493.646057 729.492798,494.515442 
	C730.438538,495.601379 729.412781,496.389587 728.778992,497.021301 
	C723.762817,502.020142 717.856506,505.595581 710.750366,507.934204 
z"/>
<path fill="#F5DFDF" opacity="1.000000" stroke="none" 
	d="
M910.401367,491.743958 
	C909.833191,492.143616 909.553711,492.339539 909.148071,492.760590 
	C908.649841,493.365814 908.222900,493.668427 907.363770,494.005341 
	C897.750244,494.807251 889.738098,492.139648 883.147095,485.491577 
	C881.875488,484.208862 880.617249,482.872742 878.578369,481.923462 
	C877.868713,481.365417 877.561829,480.958588 876.985229,480.335144 
	C877.213135,477.686951 876.779785,475.305511 876.326843,472.800995 
	C874.520630,462.814056 879.311157,451.908783 887.474548,446.837036 
	C889.424805,445.625397 891.551270,443.936768 893.723267,446.217621 
	C895.826355,448.426117 895.588196,451.049408 894.143921,453.572021 
	C893.739014,454.279236 893.090393,454.843323 892.584595,455.497101 
	C891.053833,457.475525 886.786743,458.807922 887.431030,460.300629 
	C888.729553,463.309143 890.932678,466.069794 892.327515,469.207275 
	C892.477295,469.544373 893.532288,469.479065 894.554932,469.718689 
	C895.050354,469.979767 895.158264,470.122528 895.059570,470.436768 
	C892.664795,472.268799 892.799866,473.317078 895.635071,474.326508 
	C903.232361,477.031342 910.107788,482.161743 918.781738,481.351166 
	C918.815369,481.348053 918.903442,481.928711 918.986816,482.619263 
	C918.494202,488.048615 914.994446,490.186279 910.401367,491.743958 
z"/>
<path fill="#C1D6DA" opacity="1.000000" stroke="none" 
	d="
M876.547363,480.506927 
	C876.989746,480.284302 877.343750,480.390045 877.857422,480.731323 
	C881.754944,484.154022 884.694458,488.337738 889.185242,490.562073 
	C894.585205,493.236725 900.072449,496.020111 906.657959,493.342377 
	C907.371033,493.065308 907.842346,493.043213 908.667847,493.003418 
	C909.146240,493.299744 909.354919,493.540771 909.837402,493.861755 
	C907.553101,498.716858 905.079346,503.419006 902.296875,508.340424 
	C901.541931,506.644196 899.929443,506.625214 898.467346,506.456940 
	C889.073303,505.375916 880.982910,501.573395 874.253479,494.915863 
	C873.525696,494.195923 872.814575,493.525177 871.295410,493.961487 
	C872.765076,489.627899 874.612061,485.231598 876.547363,480.506927 
z"/>
<path fill="#EAD6D6" opacity="1.000000" stroke="none" 
	d="
M895.072205,470.876282 
	C894.852966,470.608246 894.868408,470.217804 894.905396,470.027405 
	C898.960632,465.869049 902.571838,461.710815 901.543884,455.328247 
	C898.832947,458.881470 898.498779,463.936859 894.220032,466.682953 
	C891.955322,463.305542 889.587402,460.156158 894.710999,456.890228 
	C897.507935,455.107330 896.640259,450.271332 898.842468,449.094788 
	C901.427307,447.713806 902.520935,452.509308 905.924072,453.525085 
	C910.032898,454.751434 914.056274,458.789825 917.088318,462.747345 
	C917.435730,463.200836 917.286072,464.035187 917.443970,465.056458 
	C917.545837,465.652222 917.570618,465.884460 917.245300,466.106812 
	C914.303406,465.259460 914.301819,467.251495 913.904114,468.825775 
	C913.078247,472.094757 910.762573,474.168610 908.203857,476.113861 
	C906.101624,477.712158 904.833496,476.310364 903.543945,475.018372 
	C902.071960,473.543701 902.897827,472.435638 904.204712,471.342682 
	C906.818604,469.156677 908.495422,466.300201 909.632385,463.134888 
	C910.000732,462.109192 910.715027,460.631958 909.359497,460.050781 
	C907.757690,459.364105 907.547668,461.075195 907.256348,462.088257 
	C906.196777,465.772217 903.727356,468.350006 900.991821,470.860657 
	C899.007751,472.681641 897.275269,472.713348 895.072205,470.876282 
z"/>
<path fill="#C1D6DA" opacity="1.000000" stroke="none" 
	d="
M843.315796,572.031250 
	C843.301636,574.097717 842.440369,574.324524 841.032898,574.292419 
	C836.564575,574.190430 832.092407,574.254700 827.245483,574.254700 
	C827.990479,567.745850 830.707031,563.881165 837.118042,562.208984 
	C843.502380,560.543701 843.378723,560.068237 843.353394,566.551819 
	C843.346924,568.212402 843.337769,569.872925 843.315796,572.031250 
z"/>
<path fill="#EAD6D6" opacity="1.000000" stroke="none" 
	d="
M795.914917,573.348755 
	C793.145508,572.445435 790.943970,571.442932 789.433899,568.002380 
	C797.212158,568.496216 804.515869,569.163391 811.927002,568.625427 
	C807.494812,572.647461 802.475098,574.794678 795.914917,573.348755 
z"/>
<path fill="#EAD6D6" opacity="1.000000" stroke="none" 
	d="
M917.362549,465.587463 
	C919.319946,467.013611 920.476013,469.027985 920.960815,471.338196 
	C921.753906,475.116882 919.315735,478.407135 915.583740,478.866882 
	C914.168640,479.041229 912.692505,478.823761 911.972168,477.701508 
	C911.156799,476.431152 912.780945,475.743805 913.434570,474.946136 
	C915.388977,472.560913 916.684265,469.957520 916.869995,466.471008 
	C916.895142,466.096924 917.204163,465.754883 917.362549,465.587463 
z"/>
<path fill="#292625" opacity="1.000000" stroke="none" 
	d="
M910.500122,491.957977 
	C912.498474,488.691864 917.487061,488.074768 918.815491,483.277069 
	C919.437866,483.003418 919.868286,483.005096 920.621521,483.002350 
	C919.580566,488.217346 916.750732,491.793182 910.500122,491.957977 
z"/>
<path fill="#F5DFDF" opacity="1.000000" stroke="none" 
	d="
M702.159790,455.266663 
	C701.968994,454.007721 702.006287,453.002350 702.091736,451.621429 
	C704.802185,449.087555 707.570801,448.924408 710.361450,450.932129 
	C713.054321,452.869537 714.723022,454.925354 713.729919,458.851379 
	C712.023926,465.596069 712.518799,472.458649 715.376648,478.892975 
	C716.458374,481.328522 715.825195,482.698517 714.225342,484.558868 
	C710.387268,489.021973 704.581665,490.099976 700.135498,493.688904 
	C694.918213,491.290039 688.885986,489.359924 687.660400,482.206390 
	C693.302185,483.541931 696.028137,477.720215 700.734741,477.501495 
	C701.440063,477.468719 702.081604,476.361755 702.801819,476.296997 
	C705.798889,476.027313 705.635315,476.129669 705.187805,473.170532 
	C704.869995,471.068970 704.268982,468.381775 705.220825,466.832275 
	C708.315613,461.794617 705.558960,458.715607 702.159790,455.266663 
z"/>
<path fill="#F5DFDF" opacity="1.000000" stroke="none" 
	d="
M687.114624,481.391968 
	C687.459900,481.202026 687.787109,481.343384 688.087646,481.754669 
	C687.623291,482.296265 687.294983,482.217590 687.114624,481.391968 
z"/>
<path fill="#212020" opacity="1.000000" stroke="none" 
	d="
M810.228088,529.877563 
	C810.658325,537.385010 809.064331,543.796936 803.375244,548.608826 
	C795.778137,555.034607 784.698059,552.880493 780.069153,544.082458 
	C779.225769,542.479553 778.530579,540.755737 778.061279,539.008667 
	C777.290771,536.140198 775.606750,532.565369 777.169495,530.377563 
	C778.976257,527.848022 782.225464,530.736267 784.838684,531.121521 
	C792.047241,532.184143 799.027161,531.687134 805.921997,529.296326 
	C807.223999,528.844849 808.893555,527.073914 810.228088,529.877563 
z"/>
<path fill="#1B1A1A" opacity="1.000000" stroke="none" 
	d="
M771.080994,501.107727 
	C774.390259,503.139496 776.027466,505.900970 776.493103,509.343201 
	C776.818970,511.752441 776.553467,514.053162 773.937561,515.154785 
	C771.803467,516.053467 769.895447,515.210449 768.680664,513.530823 
	C767.143250,511.404968 767.447754,508.809845 769.335571,507.242126 
	C771.553467,505.400299 771.992920,504.317078 769.218384,502.870209 
	C768.530884,502.511688 767.802795,501.856018 768.577881,500.917908 
	C769.288513,500.057739 770.043640,500.606873 771.080994,501.107727 
z"/>
<path fill="#090909" opacity="1.000000" stroke="none" 
	d="
M814.299438,507.036499 
	C819.290283,503.678894 812.175293,503.766479 813.824341,500.777039 
	C816.905029,501.165466 818.857056,503.382324 820.178406,506.352875 
	C821.438110,509.184814 822.081970,512.141296 819.628540,514.688721 
	C818.537048,515.822083 817.033936,515.986389 815.483276,515.246704 
	C813.850891,514.468079 812.749451,513.368713 812.719849,511.478729 
	C812.695923,509.952118 813.041382,508.516388 814.299438,507.036499 
z"/>
<path fill="#292625" opacity="1.000000" stroke="none" 
	d="
M819.822510,486.704987 
	C821.292664,487.634491 823.591858,487.964813 822.567932,489.806732 
	C821.792297,491.202087 820.250061,489.684540 819.074097,489.297760 
	C817.034363,488.627014 815.004639,488.003754 812.803955,488.604523 
	C811.722168,488.899841 810.217468,489.307404 810.086548,487.649902 
	C809.970154,486.177429 811.498657,486.079956 812.631897,485.981537 
	C814.933105,485.781708 817.235962,485.705505 819.822510,486.704987 
z"/>
<path fill="#292625" opacity="1.000000" stroke="none" 
	d="
M789.791931,518.283203 
	C791.268860,518.659668 792.405212,518.900330 793.437195,519.370178 
	C794.292725,519.759644 795.404480,520.347961 794.821228,521.541260 
	C794.241943,522.726562 793.176575,522.244385 792.312683,521.748718 
	C790.095398,520.476562 787.957947,520.671936 785.827454,521.963623 
	C785.081299,522.415955 784.112122,522.611816 783.612854,521.837769 
	C782.881958,520.704468 783.893311,519.942322 784.741150,519.603882 
	C786.238220,519.006287 787.845154,518.684082 789.791931,518.283203 
z"/>
<path fill="#292625" opacity="1.000000" stroke="none" 
	d="
M768.461914,485.089172 
	C769.854858,484.998047 770.842957,484.892365 771.812317,484.983795 
	C773.089478,485.104248 774.983948,485.175964 774.883667,486.702026 
	C774.747803,488.768341 772.965881,487.539001 771.802429,487.527130 
	C770.682983,487.515747 769.561829,487.771027 768.440979,487.774902 
	C767.003601,487.779877 765.149780,490.437653 764.366394,488.113190 
	C763.607178,485.860352 766.628113,485.997833 768.461914,485.089172 
z"/>
<path fill="#C1D6DA" opacity="1.000000" stroke="none" 
	d="
M896.604370,528.666138 
	C898.564819,524.108459 900.331421,519.895142 902.098022,515.681763 
	C902.881592,521.365356 900.916199,526.111511 897.592224,530.391113 
	C897.269897,530.806213 896.696045,531.622009 896.142761,530.798340 
	C895.894714,530.428955 896.301086,529.619873 896.604370,528.666138 
z"/>
<path fill="#292625" opacity="1.000000" stroke="none" 
	d="
M906.462524,493.058594 
	C907.674866,496.873047 904.672241,495.757507 903.126770,495.661530 
	C892.584045,495.006775 883.921997,490.827393 878.059448,481.311432 
	C879.861694,479.796600 880.697327,481.320862 881.607605,482.389893 
	C888.019775,489.920563 896.162964,493.437775 906.462524,493.058594 
z"/>
<path fill="#F7F7F7" opacity="1.000000" stroke="none" 
	d="
M804.979736,542.781250 
	C800.320923,548.869446 795.540344,550.943970 790.376038,549.379089 
	C784.697998,547.658630 780.609192,542.113708 779.899414,535.549683 
	C779.659668,533.332397 780.016296,532.449097 782.420654,533.066162 
	C790.001160,535.011536 797.531067,534.604980 804.954163,532.247009 
	C807.845093,531.328735 808.070923,532.764160 807.618958,534.969910 
	C807.088745,537.557373 806.812134,540.230774 804.979736,542.781250 
z"/>
</svg>